<svg id="visual" viewBox="0 0 960 540" width="960" height="540" xmlns="http://www.w3.org/2000/svg" xmlns:xlink="http://www.w3.org/1999/xlink" version="1.1"><rect x="0" y="0" width="960" height="540" fill="#08B2E3"></rect><defs><linearGradient id="grad1_0" x1="43.8%" y1="100%" x2="100%" y2="0%"><stop offset="14.444444444444446%" stop-color="#08b2e3" stop-opacity="1"></stop><stop offset="85.55555555555554%" stop-color="#08b2e3" stop-opacity="1"></stop></linearGradient></defs><defs><linearGradient id="grad2_0" x1="0%" y1="100%" x2="56.3%" y2="0%"><stop offset="14.444444444444446%" stop-color="#08b2e3" stop-opacity="1"></stop><stop offset="85.55555555555554%" stop-color="#08b2e3" stop-opacity="1"></stop></linearGradient></defs><g transform="translate(960, 540)"><path d="M-472 0C-475 -23.3 -478 -46.5 -472.1 -67.9C-466.2 -89.3 -451.4 -108.8 -444.2 -130.4C-437.1 -152.1 -437.6 -176 -429.3 -196.1C-421.1 -216.2 -404.2 -232.5 -392.9 -252.5C-381.5 -272.5 -375.7 -296.3 -362 -313.7C-348.3 -331.1 -326.6 -342.2 -308.4 -356C-290.2 -369.7 -275.5 -386.2 -259 -403C-242.5 -419.7 -224.2 -436.9 -201.9 -442.1C-179.6 -447.3 -153.3 -440.6 -130.4 -444.2C-107.6 -447.9 -88.3 -462 -67.2 -467.2C-46 -472.4 -23 -468.7 0 -465L0 0Z" fill="#57a773"></path></g><g transform="translate(0, 0)"><path d="M472 0C463.5 21.1 455.1 42.2 456.3 65.6C457.5 89 468.5 114.8 463.4 136.1C458.4 157.3 437.4 174.1 426.6 194.8C415.8 215.6 415.3 240.3 407.2 261.7C399 283.1 383.4 301.2 367.3 318.3C351.2 335.3 334.8 351.2 317 365.8C299.1 380.4 280 393.6 260 404.6C240.1 415.7 219.3 424.6 199 435.7C178.7 446.8 158.8 460.2 136.6 465.4C114.5 470.5 90 467.3 66.9 465.2C43.7 463.1 21.9 462.1 0 461L0 0Z" fill="#57a773"></path></g></svg>